PathFileType	4	(X/Y/Z)	SUBJ82_1_walk_RCNL2025.trc
DataRate	CameraRate	NumFrames	NumMarkers	Units	OrigDataRate	OrigDataStartFrame	OrigNumFrames
100	100	5	25	mm	100	29	226
Frame#	Time	R_Shoulder			L_Shoulder			C7			J_Notch			R_Elbow			L_Elbow			R_Wrist			L_Wrist			R_Asis			L_Asis			Sacral			Thoracic			Sternum			R_Thigh_Lateral			R_Knee_Lateral			R_Shank_Lateral			R_Ankle_Lateral			R_Heel			R_Toe			L_Thigh_Lateral			L_Knee_Lateral			L_Shank_Lateral			L_Ankle_Lateral			L_Heel			L_Toe		
		X1	Y1	Z1	X2	Y2	Z2	X3	Y3	Z3	X4	Y4	Z4	X5	Y5	Z5	X6	Y6	Z6	X7	Y7	Z7	X8	Y8	Z8	X9	Y9	Z9	X10	Y10	Z10	X11	Y11	Z11	X12	Y12	Z12	X13	Y13	Z13	X14	Y14	Z14	X15	Y15	Z15	X16	Y16	Z16	X17	Y17	Z17	X18	Y18	Z18	X19	Y19	Z19	X20	Y20	Z20	X21	Y21	Z21	X22	Y22	Z22	X23	Y23	Z23	X24	Y24	Z24	X25	Y25	Z25
29	0.28000000	-779.908264	1400.433350	-70.232819	-771.199951	1401.990967	-481.890747	-822.096008	1496.264648	-272.544830	-701.537415	1377.740723	-272.019928	-824.369873	1066.761353	25.384457	-927.261475	1081.325195	-521.219727	-676.581665	850.132080	6.439299	-900.535461	819.129730	-512.780121	-736.917297	959.894043	-119.028458	-697.340271	984.137634	-384.982849	-892.830627	982.495605	-290.477753	-921.680481	1258.372070	-278.660461	-677.158264	1204.878662	-266.817535	-887.554688	546.961853	-72.400940	-910.370056	466.828552	-116.968315	-1085.697876	322.956726	-77.034630	-1204.943359	191.365036	-178.533951	-1244.371948	207.263184	-228.315842	-1147.766846	63.260334	-208.578171	-653.181152	553.379883	-446.166779	-626.123108	484.221710	-399.966064	-588.354980	256.277130	-428.974670	-575.966431	70.227997	-359.686127	-614.384583	49.692219	-303.372467	-433.112000	52.900558	-330.878326
30	0.29000000	-763.838379	1402.742188	-71.166672	-753.911621	1403.708984	-482.797363	-805.811462	1498.214844	-273.815063	-685.068970	1379.939087	-272.861389	-811.674622	1068.844238	22.860010	-907.349915	1081.946899	-522.778015	-668.067810	849.351440	4.663608	-879.085205	819.915466	-515.824951	-719.563354	960.779785	-120.918755	-682.123474	986.735840	-386.933105	-877.043274	984.206909	-289.859924	-905.089111	1260.161621	-279.547302	-660.738708	1207.054199	-267.698364	-860.323608	545.286255	-70.202980	-881.986694	465.640808	-114.330330	-1061.770508	329.441650	-75.599754	-1184.448975	201.578949	-177.281616	-1221.838501	220.117874	-227.852158	-1135.532349	69.074776	-206.107773	-639.700134	554.973694	-447.961029	-613.765015	485.431305	-401.530121	-580.440491	256.633759	-429.999023	-574.502136	70.407249	-359.753479	-613.712646	50.528458	-303.831573	-432.132782	50.677940	-330.742798
31	0.30000000	-747.748474	1405.116089	-71.974419	-736.453247	1405.540771	-483.533356	-789.653687	1500.265991	-274.931396	-668.725647	1382.102539	-273.514771	-799.188660	1070.994507	20.313948	-887.179260	1082.676392	-524.560669	-659.973724	848.599030	2.809066	-857.041046	820.873413	-519.000809	-702.526001	961.827576	-122.774147	-667.230286	989.332825	-388.896423	-861.539551	985.957764	-289.163025	-888.693726	1262.143188	-280.345917	-644.582581	1209.128296	-268.381531	-832.569824	543.858704	-68.224083	-852.879333	464.704346	-111.872215	-1035.988403	335.251984	-74.161057	-1162.028564	211.285843	-176.312424	-1197.659302	231.829071	-227.629990	-1120.030396	75.606339	-203.086365	-627.680176	556.205750	-449.533539	-602.988892	486.253143	-402.936646	-574.050964	256.665344	-430.919037	-573.470398	70.545235	-359.648682	-613.262451	51.195251	-304.173401	-431.540955	49.219387	-330.666962
32	0.31000000	-731.702698	1407.484985	-72.642204	-718.895569	1407.459595	-484.095612	-773.628418	1502.429932	-275.877716	-652.552185	1384.241455	-273.974823	-786.890808	1073.136353	17.762554	-866.782898	1083.475220	-526.578247	-652.238434	847.852325	0.889993	-834.438110	821.967224	-522.257050	-685.813416	963.098572	-124.552856	-652.583069	991.878967	-390.827576	-846.272400	987.752625	-288.499573	-872.509766	1264.308716	-281.052032	-628.685242	1211.113403	-268.847229	-804.639038	542.909058	-66.594475	-823.294617	464.223450	-109.688004	-1008.549988	340.164429	-72.776703	-1137.788086	220.180374	-175.671127	-1172.038574	241.987152	-227.730331	-1101.033691	82.408478	-199.645065	-617.308228	557.080261	-450.799500	-593.867615	486.742401	-404.132538	-569.133423	256.462341	-431.713989	-572.781677	70.626236	-359.390625	-612.992065	51.701515	-304.386993	-431.224640	48.326149	-330.608032
33	0.32000000	-715.779968	1409.808350	-73.156876	-701.330933	1409.463379	-484.486389	-757.742981	1504.720703	-276.640961	-636.580688	1386.397339	-274.249512	-774.756409	1075.219116	15.212096	-846.175354	1084.318604	-528.830139	-644.803253	847.104095	-1.069561	-811.317413	823.170044	-525.544678	-669.409180	964.662109	-126.218407	-638.109985	994.343079	-392.682312	-831.195862	989.630493	-287.960205	-856.540894	1266.652100	-281.669373	-613.031372	1213.060059	-269.103241	-776.829712	542.640625	-65.400856	-793.463928	464.376404	-107.863052	-979.762939	344.117035	-71.533699	-1111.838501	227.968933	-175.353119	-1145.178223	250.260315	-228.149872	-1078.475098	89.017067	-195.988052	-608.483337	557.678345	-451.738403	-586.277954	487.002014	-405.095093	-565.524109	256.140564	-432.382263	-572.347412	70.656799	-359.023407	-612.858765	52.073948	-304.484222	-431.090851	47.821159	-330.547729
